<svg width="484" height="345" viewBox="0 0 484 345" fill="none" xmlns="http://www.w3.org/2000/svg">
<path d="M239.5 172.5C239.5 231.627 189.216 280.5 126 280.5C62.784 280.5 12.5 231.627 12.5 172.5C12.5 113.373 62.784 64.5 126 64.5C189.216 64.5 239.5 113.373 239.5 172.5Z" fill="white" fill-opacity="0.85" stroke="black" stroke-width="25"/>
<mask id="path-2-inside-1" fill="white">
<path d="M210.388 95.3414C225.822 75.4166 247.399 61.0533 272.085 54.2728C296.77 47.4923 323.321 48.6358 348.001 57.5424C372.681 66.449 394.247 82.6704 409.666 103.924C425.084 125.178 433.578 150.393 433.953 176.023C434.328 201.653 426.565 226.407 411.755 246.801C396.946 267.196 375.836 282.204 351.397 289.714C326.957 297.225 300.418 296.859 275.513 288.669C250.609 280.479 228.593 264.877 212.563 244.058L310 172.5L210.388 95.3414Z"/>
</mask>
<path d="M210.388 95.3414C225.822 75.4166 247.399 61.0533 272.085 54.2728C296.77 47.4923 323.321 48.6358 348.001 57.5424C372.681 66.449 394.247 82.6704 409.666 103.924C425.084 125.178 433.578 150.393 433.953 176.023C434.328 201.653 426.565 226.407 411.755 246.801C396.946 267.196 375.836 282.204 351.397 289.714C326.957 297.225 300.418 296.859 275.513 288.669C250.609 280.479 228.593 264.877 212.563 244.058L310 172.5L210.388 95.3414Z" fill="black" stroke="black" stroke-width="50" mask="url(#path-2-inside-1)"/>
<path d="M95.0625 118.041H112.641V226H95.0625V118.041ZM127.582 118.041C136.664 118.041 144.623 119.506 151.459 122.436C158.393 125.268 164.105 129.076 168.598 133.861C173.188 138.646 176.605 144.115 178.852 150.268C181.098 156.322 182.221 162.572 182.221 169.018C182.221 177.904 181.244 185.521 179.291 191.869C177.436 198.119 175.043 203.393 172.113 207.689C169.184 211.889 165.863 215.209 162.152 217.65C158.539 220.092 155.023 221.947 151.605 223.217C148.188 224.389 145.062 225.17 142.23 225.561C139.398 225.854 137.299 226 135.932 226H118.646V213.109H130.072C141.986 213.109 150.58 209.301 155.854 201.684C161.127 194.066 163.764 183.031 163.764 168.578C163.764 164.086 163.227 159.643 162.152 155.248C161.078 150.854 158.979 146.898 155.854 143.383C152.826 139.77 148.676 136.889 143.402 134.74C138.129 132.494 131.293 131.371 122.895 131.371H118.646V118.041H127.582Z" fill="black"/>
<path d="M340.678 176.891L229.654 230.777L236.093 111.376L340.678 176.891Z" fill="black"/>
<path d="M283.062 118.041H300.641V226H283.062V118.041ZM315.582 118.041C324.664 118.041 332.623 119.506 339.459 122.436C346.393 125.268 352.105 129.076 356.598 133.861C361.188 138.646 364.605 144.115 366.852 150.268C369.098 156.322 370.221 162.572 370.221 169.018C370.221 177.904 369.244 185.521 367.291 191.869C365.436 198.119 363.043 203.393 360.113 207.689C357.184 211.889 353.863 215.209 350.152 217.65C346.539 220.092 343.023 221.947 339.605 223.217C336.188 224.389 333.062 225.17 330.23 225.561C327.398 225.854 325.299 226 323.932 226H306.646V213.109H318.072C329.986 213.109 338.58 209.301 343.854 201.684C349.127 194.066 351.764 183.031 351.764 168.578C351.764 164.086 351.227 159.643 350.152 155.248C349.078 150.854 346.979 146.898 343.854 143.383C340.826 139.77 336.676 136.889 331.402 134.74C326.129 132.494 319.293 131.371 310.895 131.371H306.646V118.041H315.582Z" fill="white"/>
</svg>
